# Blender v2.79 (sub 0) OBJ File: 'lightWall.blend'
# www.blender.org
o Cube.001_Cube.007
v 6.000000 -1.000000 1.000000
v 6.000000 -1.000000 -1.000000
v 6.000000 10.000000 -1.000000
v -6.000000 -1.000000 1.000000
v -6.000000 -1.000000 -1.000000
v -6.000000 10.000000 -1.000000
v 4.000000 12.000000 -1.000000
v -4.000000 12.000000 -1.000000
v -4.000000 12.000000 1.000000
v -6.000000 10.000000 1.000000
v 4.000000 12.000000 1.000000
v 6.000000 10.000000 1.000000
v -6.000000 10.076517 -1.000000
v -4.076517 12.000000 -1.000000
v -5.963041 10.451770 -1.000000
v -5.853583 10.812602 -1.000000
v -5.675835 11.145147 -1.000000
v -5.436625 11.436625 -1.000000
v -5.145147 11.675835 -1.000000
v -4.812602 11.853583 -1.000000
v -4.451770 11.963041 -1.000000
v -4.076517 12.000000 1.000000
v -6.000000 10.076517 1.000000
v -4.451770 11.963041 1.000000
v -4.812602 11.853583 1.000000
v -5.145147 11.675835 1.000000
v -5.436625 11.436625 1.000000
v -5.675835 11.145147 1.000000
v -5.853583 10.812602 1.000000
v -5.963041 10.451770 1.000000
v 6.000000 10.076517 1.000000
v 4.076517 12.000000 1.000000
v 5.963041 10.451770 1.000000
v 5.853583 10.812602 1.000000
v 5.675835 11.145147 1.000000
v 5.436625 11.436625 1.000000
v 5.145147 11.675835 1.000000
v 4.812602 11.853583 1.000000
v 4.451770 11.963041 1.000000
v 4.076517 12.000000 -1.000000
v 6.000000 10.076517 -1.000000
v 4.451770 11.963041 -1.000000
v 4.812602 11.853583 -1.000000
v 5.145147 11.675835 -1.000000
v 5.436625 11.436625 -1.000000
v 5.675835 11.145147 -1.000000
v 5.853583 10.812602 -1.000000
v 5.963041 10.451770 -1.000000
v 4.000000 -0.562519 0.562518
v 4.437481 -1.000000 1.000000
v 4.000000 -0.562519 -0.562518
v 4.437481 -1.000000 -1.000000
v -4.000000 -0.562519 0.562518
v -4.437481 -1.000000 1.000000
v -4.000000 10.000000 0.562518
v -4.437481 10.439102 1.000000
v -4.000000 -0.562519 -0.562518
v -4.437481 -1.000000 -1.000000
v 4.000000 9.970419 -0.562518
v 4.437481 10.406285 -1.000000
v -4.000000 10.000000 -0.562518
v -4.437481 10.439102 -1.000000
v 4.437481 10.406285 1.000000
v 4.000000 9.970419 0.562518
vt 0.718741 0.000000
vt 0.718741 5.703143
vt 1.500000 5.500000
vt 1.500000 0.000000
vt 0.500000 0.000000
vt 1.281259 0.000000
vt 1.281259 -1.000000
vt 0.500000 -1.000000
vt 0.000000 0.000000
vt 0.000000 5.500000
vt -1.000000 5.500000
vt -1.000000 0.000000
vt 0.218741 0.218741
vt 0.218741 5.485209
vt 0.781259 5.485209
vt 0.781259 0.218741
vt 0.500000 0.000000
vt 0.500000 5.500000
vt -0.281259 5.703143
vt -0.281259 0.000000
vt 0.500000 0.500000
vt 0.500000 0.538259
vt 0.518480 0.725885
vt 0.573208 0.906301
vt 0.662083 1.072574
vt 0.781687 1.218312
vt 0.927427 1.337917
vt 1.093699 1.426792
vt 1.274115 1.481521
vt 1.461741 1.500000
vt 1.500000 1.500000
vt 1.281259 0.719551
vt 0.000000 0.000000
vt 0.000000 5.500000
vt 1.000000 5.500000
vt 1.000000 0.000000
vt 0.718741 0.703143
vt 0.500000 1.500000
vt 0.538259 1.500000
vt 0.725885 1.481521
vt 0.906301 1.426792
vt 1.072573 1.337917
vt 1.218313 1.218312
vt 1.337917 1.072574
vt 1.426792 0.906301
vt 1.481520 0.725885
vt 1.500000 0.538259
vt 1.500000 0.500000
vt 0.281259 0.000000
vt 0.281259 5.719551
vt -0.500000 5.500000
vt -0.500000 0.000000
vt 0.281259 0.719551
vt 0.500000 1.500000
vt 0.461741 1.500000
vt 0.274115 1.481521
vt 0.093699 1.426792
vt -0.072573 1.337917
vt -0.218313 1.218312
vt -0.337917 1.072574
vt -0.426792 0.906301
vt -0.481520 0.725885
vt -0.500000 0.538259
vt -0.500000 0.500000
vt 0.781259 0.218741
vt 0.781259 5.500000
vt 0.218741 5.500000
vt 0.218741 0.218741
vt 0.500000 0.781259
vt 4.500000 0.781259
vt 4.500000 0.218741
vt 0.500000 0.218741
vt 0.500000 0.000000
vt -3.500000 0.000000
vt -3.500000 -1.000000
vt 0.500000 -1.000000
vt 0.718741 0.703143
vt 0.500000 1.500000
vt -3.500000 1.500000
vt -3.718741 0.719551
vt 0.500000 5.500000
vt 1.281259 5.719551
vt 0.281259 0.719551
vt 0.500000 1.500000
vt 4.500000 1.500000
vt 4.718740 0.703143
vt 0.500000 0.000000
vt -0.281259 0.000000
vt -0.500000 -0.218741
vt -0.500000 -0.781259
vt -0.281259 -1.000000
vt 0.500000 -1.000000
vt 0.281259 1.000000
vt -0.500000 1.000000
vt -0.500000 0.000000
vt 0.281259 0.000000
vt 0.500000 0.000000
vt 0.461741 0.000000
vt 0.461741 -1.000000
vt 0.500000 -1.000000
vt 0.000000 0.500000
vt 0.000000 0.538259
vt 1.000000 0.538259
vt 1.000000 0.500000
vt 0.538259 0.000000
vt 0.538259 -1.000000
vt 0.218741 0.500000
vt 0.000000 0.719551
vt 0.000000 1.500000
vt 1.000000 1.500000
vt 1.000000 0.719551
vt 0.781259 0.500000
vt 0.781259 0.485209
vt 1.000000 0.703143
vt 1.000000 1.500000
vt 0.000000 1.500000
vt 0.000000 0.703143
vt 0.218741 0.485209
vt 0.000000 0.500000
vt 0.000000 0.538259
vt -1.000000 0.538259
vt -1.000000 0.500000
vt 0.461741 0.000000
vt 0.461741 1.000000
vt 0.274115 1.000000
vt 0.274115 0.000000
vt 0.093699 1.000000
vt 0.093699 0.000000
vt -0.072573 1.000000
vt -0.072573 0.000000
vt 0.927427 0.000000
vt 0.927427 1.000000
vt 0.781687 1.000000
vt 0.781687 0.000000
vt 0.000000 0.218312
vt 1.000000 0.218312
vt 1.000000 0.072574
vt 0.000000 0.072574
vt 1.000000 -0.093699
vt 0.000000 -0.093699
vt 0.000000 0.906301
vt 1.000000 0.906301
vt 1.000000 0.725885
vt 0.000000 0.725885
vt 0.725885 -1.000000
vt 0.725885 0.000000
vt 0.906301 -1.000000
vt 0.906301 0.000000
vt 1.072573 -1.000000
vt 1.072573 0.000000
vt 0.072573 0.000000
vt 0.072573 -1.000000
vt 0.218313 -1.000000
vt 0.218313 0.000000
vt 0.000000 0.218312
vt -1.000000 0.218312
vt -1.000000 0.072574
vt 0.000000 0.072574
vt -1.000000 -0.093699
vt 0.000000 -0.093699
vt 0.000000 0.906301
vt -1.000000 0.906301
vt -1.000000 0.725885
vt 0.000000 0.725885
vt 0.500000 0.500000
vt 0.500000 0.538259
vt 0.481520 0.725885
vt 0.426792 0.906301
vt 0.337917 1.072574
vt 0.218313 1.218312
vt 0.072573 1.337917
vt -0.093699 1.426792
vt -0.274115 1.481521
vt -0.461741 1.500000
vt -0.500000 1.500000
vt -0.281259 0.703143
vt 0.718741 -1.000000
vt 0.500000 -0.781259
vt 0.500000 -0.218741
vt 0.281259 1.000000
vt 0.500000 0.781259
vt 0.500000 0.218741
vt 0.000000 -5.000000
vt 0.218741 -4.781260
vt 0.000000 0.703143
vt 0.000000 -5.000000
vt -0.218741 -4.781260
vt -0.218741 0.485209
vt 0.000000 0.000000
vt 0.000000 5.703143
vt 0.500000 0.485209
vt -3.500000 0.500000
vt -3.718741 0.719551
vt 0.781259 -4.781260
vt 1.000000 -5.000000
vt 0.500000 0.500000
vt 4.500000 0.485209
vt 4.718740 0.703143
vt 1.500000 -1.000000
vn 0.0000 0.0000 -1.0000
vn 0.0000 -1.0000 0.0000
vn 1.0000 0.0000 0.0000
vn -1.0000 0.0000 0.0000
vn 0.0000 0.0000 1.0000
vn -0.0037 -1.0000 0.0000
vn 0.0000 1.0000 0.0000
vn 0.0345 0.9994 0.0000
vn -0.0504 0.9987 0.0000
vn -0.9987 0.0502 0.0000
vn 0.9988 0.0494 0.0000
vn -0.0980 0.9952 0.0000
vn -0.2903 0.9569 0.0000
vn -0.4714 0.8819 0.0000
vn -0.6344 0.7730 0.0000
vn -0.7730 0.6344 0.0000
vn -0.8819 0.4714 0.0000
vn -0.9569 0.2903 0.0000
vn -0.9952 0.0980 0.0000
vn 0.0980 0.9952 0.0000
vn 0.2903 0.9569 0.0000
vn 0.4714 0.8819 0.0000
vn 0.6344 0.7730 0.0000
vn 0.7730 0.6344 0.0000
vn 0.8819 0.4714 0.0000
vn 0.9569 0.2903 0.0000
vn 0.9952 0.0980 0.0000
vn -0.7071 -0.7071 0.0000
vn 0.7071 -0.7071 0.0000
vn 0.7071 0.0000 0.7071
vn -0.7071 0.0000 -0.7071
vn -0.7071 0.0000 0.7071
vn -0.0026 -0.7071 -0.7071
vn 0.7071 0.0000 -0.7071
vn -0.0026 -0.7071 0.7071
s off
f 52/1/1 60/2/1 3/3/1 2/4/1
f 5/5/2 58/6/2 54/7/2 4/8/2
f 2/9/3 3/10/3 12/11/3 1/12/3
f 49/13/4 64/14/4 59/15/4 51/16/4
f 1/17/5 12/18/5 63/19/5 50/20/5
f 6/21/1 13/22/1 15/23/1 16/24/1 17/25/1 18/26/1 19/27/1 20/28/1 21/29/1 14/30/1 8/31/1 62/32/1
f 4/33/4 10/34/4 6/35/4 5/36/4
f 60/37/1 7/38/1 40/39/1 42/40/1 43/41/1 44/42/1 45/43/1 46/44/1 47/45/1 48/46/1 41/47/1 3/48/1
f 54/49/5 56/50/5 10/51/5 4/52/5
f 56/53/5 9/54/5 22/55/5 24/56/5 25/57/5 26/58/5 27/59/5 28/60/5 29/61/5 30/62/5 23/63/5 10/64/5
f 57/65/3 61/66/3 55/67/3 53/68/3
f 61/69/6 59/70/6 64/71/6 55/72/6
f 7/73/7 8/74/7 9/75/7 11/76/7
f 63/77/5 11/78/5 9/79/5 56/80/5
f 5/5/1 6/81/1 62/82/1 58/6/1
f 62/83/1 8/84/1 7/85/1 60/86/1
f 3/87/8 60/88/8 59/89/8 64/90/8 63/91/8 12/92/8
f 61/69/9 62/93/9 6/94/9 10/95/9 56/96/9 55/72/9
f 8/97/7 14/98/7 22/99/7 9/100/7
f 10/101/4 23/102/4 13/103/4 6/104/4
f 40/105/7 7/73/7 11/76/7 32/106/7
f 55/107/10 56/108/10 9/109/10 8/110/10 62/111/10 61/112/10
f 59/113/11 60/114/11 7/115/11 11/116/11 63/117/11 64/118/11
f 3/119/3 41/120/3 31/121/3 12/122/3
f 22/123/12 14/124/12 21/125/12 24/126/12
f 24/126/13 21/125/13 20/127/13 25/128/13
f 25/128/14 20/127/14 19/129/14 26/130/14
f 26/131/15 19/132/15 18/133/15 27/134/15
f 27/135/16 18/136/16 17/137/16 28/138/16
f 28/138/17 17/137/17 16/139/17 29/140/17
f 29/141/18 16/142/18 15/143/18 30/144/18
f 30/144/19 15/143/19 13/103/19 23/102/19
f 40/105/20 32/106/20 39/145/20 42/146/20
f 42/146/21 39/145/21 38/147/21 43/148/21
f 43/148/22 38/147/22 37/149/22 44/150/22
f 44/151/23 37/152/23 36/153/23 45/154/23
f 45/155/24 36/156/24 35/157/24 46/158/24
f 46/158/25 35/157/25 34/159/25 47/160/25
f 47/161/26 34/162/26 33/163/26 48/164/26
f 48/164/27 33/163/27 31/121/27 41/120/27
f 12/165/5 31/166/5 33/167/5 34/168/5 35/169/5 36/170/5 37/171/5 38/172/5 39/173/5 32/174/5 11/175/5 63/176/5
f 52/1/28 50/177/28 49/178/28 51/179/28
f 54/49/29 58/180/29 57/181/29 53/182/29
f 56/108/30 54/183/30 53/184/30 55/107/30
f 60/185/31 52/186/31 51/187/31 59/188/31
f 50/189/32 63/190/32 64/14/32 49/13/32
f 59/191/33 61/192/33 62/193/33 60/37/33
f 61/112/34 57/194/34 58/195/34 62/111/34
f 55/196/35 64/197/35 63/198/35 56/53/35
f 52/1/2 2/4/2 1/199/2 50/177/2
