# Blender v2.79 (sub 0) OBJ File: 'lightWall.blend'
# www.blender.org
o Cube.004
v -0.903886 0.864748 0.075000
v -0.903886 1.797792 0.075000
v -0.903886 0.864748 -0.075000
v -0.903886 1.797792 -0.075000
v 0.903886 0.864748 0.075000
v 0.903886 1.797792 0.075000
v 0.903886 0.864748 -0.075000
v 0.903886 1.797792 -0.075000
v -3.875000 -2.000000 0.075000
v -3.875000 2.000000 0.075000
v -3.875000 2.000000 -0.075000
v -3.875000 -2.000000 -0.075000
v 3.875000 -2.000000 -0.075000
v 3.875000 2.000000 -0.075000
v 3.875000 2.000000 0.075000
v 3.875000 -2.000000 0.075000
v -0.903886 1.797792 2.367699
v -0.903886 0.864748 2.367699
v 0.903886 0.864748 2.367699
v 0.903886 1.797792 2.367699
vt 0.425000 0.500000
vt 0.425000 4.500000
vt 0.575000 4.500000
vt 0.575000 0.500000
vt 0.575000 0.364748
vt 0.575000 1.297792
vt -1.867699 1.297792
vt -1.867699 0.364748
vt 0.575000 0.500000
vt 0.575000 4.500000
vt 0.425000 4.500000
vt 0.425000 0.500000
vt 0.596114 0.364748
vt 0.596114 1.297792
vt 2.403886 1.297792
vt 2.403886 0.364748
vt 0.625000 0.575000
vt 8.375000 0.575000
vt 8.375000 0.425000
vt 0.625000 0.425000
vt 0.375000 0.575000
vt -7.375000 0.575000
vt -7.375000 0.425000
vt 0.375000 0.425000
vt 0.596114 0.364748
vt 0.596114 1.297792
vt -2.375000 1.500000
vt -2.375000 -2.500000
vt 0.596114 0.297792
vt 0.596114 -0.635252
vt -2.375000 -3.500000
vt -2.375000 0.500000
vt 0.596114 0.364748
vt 2.403886 0.364748
vt 5.375000 -2.500000
vt -2.375000 -2.500000
vt 0.403886 0.297792
vt -1.403886 0.297792
vt -4.375000 0.500000
vt 3.375000 0.500000
vt 0.403886 0.364748
vt 0.403886 1.297792
vt 3.375000 1.500000
vt 3.375000 -2.500000
vt 0.403886 0.297792
vt 0.403886 -0.635252
vt 3.375000 -3.500000
vt 3.375000 0.500000
vt 0.403886 0.364748
vt -1.403886 0.364748
vt -4.375000 -2.500000
vt 3.375000 -2.500000
vt 0.596114 0.297792
vt 2.403886 0.297792
vt 5.375000 0.500000
vt -2.375000 0.500000
vt 0.575000 0.297792
vt 0.575000 -0.635252
vt -1.867699 -0.635252
vt -1.867699 0.297792
vt 0.403886 0.575000
vt -1.403886 0.575000
vt -1.403886 -1.867699
vt 0.403886 -1.867699
vt 0.596114 0.575000
vt 2.403886 0.575000
vt 2.403886 -1.867699
vt 0.596114 -1.867699
vn -1.0000 0.0000 0.0000
vn 1.0000 0.0000 0.0000
vn 0.0000 0.0000 -1.0000
vn 0.0000 -1.0000 0.0000
vn 0.0000 1.0000 0.0000
vn -0.0000 0.0000 1.0000
s off
f 9/1/1 10/2/1 11/3/1 12/4/1
f 3/5/2 4/6/2 17/7/2 18/8/2
f 13/9/2 14/10/2 15/11/2 16/12/2
f 18/13/3 17/14/3 20/15/3 19/16/3
f 12/17/4 13/18/4 16/19/4 9/20/4
f 14/21/5 11/22/5 10/23/5 15/24/5
f 1/25/6 2/26/6 10/27/6 9/28/6
f 4/29/3 3/30/3 12/31/3 11/32/3
f 3/33/3 7/34/3 13/35/3 12/36/3
f 8/37/3 4/38/3 11/39/3 14/40/3
f 7/41/3 8/42/3 14/43/3 13/44/3
f 6/45/6 5/46/6 16/47/6 15/48/6
f 5/49/6 1/50/6 9/51/6 16/52/6
f 2/53/6 6/54/6 15/55/6 10/56/6
f 8/57/1 7/58/1 19/59/1 20/60/1
f 7/61/5 3/62/5 18/63/5 19/64/5
f 4/65/4 8/66/4 20/67/4 17/68/4
